<?xml version="1.0" standalone="no"?><!DOCTYPE svg PUBLIC "-//W3C//DTD SVG 1.1//EN" "http://www.w3.org/Graphics/SVG/1.1/DTD/svg11.dtd"><svg class="icon" width="64px" height="64.00px" viewBox="0 0 1024 1024" version="1.1" xmlns="http://www.w3.org/2000/svg"><path d="M528.7 664.1a216.4 42.6 0 1 0 432.8 0 216.4 42.6 0 1 0-432.8 0zM110.9 873.3a163.7 42.6 0 1 0 327.4 0 163.7 42.6 0 1 0-327.4 0z" fill="#EEEEEE" opacity=".4" /><path d="M299.5 378.4a314.2 314.2 0 1 0 628.4 0 314.2 314.2 0 1 0-628.4 0z" fill="#E11F2A" /><path d="M747.3 244.8c-92-92-204.1-137-322.4-117.5-11.6 8.8-22.8 18.3-33.3 28.9-35.3 35.3-60.5 77-75.4 121.4-0.5 5.5-0.9 11.1-0.9 16.9 113.2-61.1 229.9-38.8 325.5 56.8s117.6 212.1 56.6 325.2c20.3-6.2 42.1-12.5 63.4-20.5 27-14.3 52.4-32.8 75.1-55.6 10.8-10.8 20.6-22.2 29.5-34.1 22.5-117-26.3-229.7-118.1-321.5z" fill="#CC1D2E" /><path d="M835.8 600.6c4.2-4.2 8.3-8.6 12.2-13 24.9-119-24-233.4-117.1-326.5C637.8 167.9 524 123 404 144.4c-4.2 3.8-8.4 7.8-12.5 11.8-42.9 42.9-70.8 95.2-83.7 150.2 110.4-55.2 223.5-31.9 316.6 61.2 93.2 93.2 116.2 206.2 60.8 316.7 55.2-12.8 107.6-40.7 150.6-83.7z" fill="#FFFFFF" opacity=".2" /><path d="M690.8 683.1c49.5-15 107.6-30.5 146.7-69.6 3.4-3.4 17.1-20.5 18.5-26.4 29.4-122.3-19.8-240.2-115.2-335.7S528.3 110.9 405 136.1c-16.5 3.4-96.3 67.6-96.3 164.9 113.2-61.1 229.9-38.8 325.5 56.8S751.8 570 690.8 683.1z" fill="#EE6246" /><path d="M599.7 392.4c-70.5-70.5-152.4-101-236-87.7-25.8 4.1-44.8 26.9-45 52.9-0.4 80.9 30.3 162 92 223.7 61.7 61.7 142.6 92.3 223.4 92 26.1-0.1 48.8-19.1 53-44.8 13.6-83.6-16.8-165.6-87.4-236.1z" fill="#F24051" /><path d="M509.229 222.43A43.4 18.8 38.492 1 0 532.63 193a43.4 18.8 38.492 1 0-23.402 29.43z" fill="#FFFFFF" opacity=".2" /><path d="M116.2 882.5l-6.5-6.5c-17.5-17.5-17.5-45.9 0-63.4l300.2-300.2c19.3-19.3 50.6-19.3 69.9 0 19.3 19.3 19.3 50.6 0 69.9L179.6 882.5c-17.5 17.5-45.9 17.5-63.4 0z" fill="#FDD580" /><path d="M118.854 873.214a40.1 29.6 44.999 1 0 41.86-41.861 40.1 29.6 44.999 1 0-41.86 41.861z" fill="#FDB937" /><path d="M470.101 199.126a26.001 12 2.625 1 0 1.1-23.976 26.001 12 2.625 1 0-1.1 23.976z" fill="#FFFFFF" /><path d="M381.5 610.4c-19.3-19.2-50.5-19.2-69.8 0.1l-61 61-42.6 42.5-35 35c19.3-19.3 50.6-19.3 69.9 0l205.1 205.1c5.3 5.3 14 5.3 19.3 0l119.2-119.2c5.3-5.3 5.3-14 0-19.3L381.5 610.4z" fill="#FF6D04" /><path d="M310.1 715.7c0.6 1.7 1.2 3.5 2 5.5s1.6 3.9 2.6 5.8 2.2 3.6 3.5 5.2c1.3 1.6 2.9 2.9 4.6 3.9 1.8 1 3.8 1.5 6 1.7 2.3 0.1 4.8-0.4 7.7-1.5-3.5 1.4-6.8 2.2-9.7 2.3-2.9 0.1-5.6-0.3-8-1.3-2.4-0.9-4.5-2.2-6.4-4s-3.6-3.7-5.1-5.8c-1.5-2.1-2.8-4.4-4-6.7-1.1-2.4-2.1-4.6-3-6.8-0.9-2.2-1.6-4.1-2.3-6-0.7-1.8-1.2-3.2-1.8-4.3-1.2-2.4-2.5-4.4-4-5.9s-3-2.8-4.5-3.6c-1.5-0.9-3.1-1.5-4.7-1.8-1.6-0.3-3-0.4-4.5-0.4 1.8-0.3 3.5-0.5 5.2-0.6s3.3 0 4.8 0.2 3 0.6 4.5 1.1c1.4 0.5 2.8 1.3 4 2.3 2.9-0.6 5.6-1.5 8.1-2.5s4.8-2.2 7-3.4c2.2-1.2 4.2-2.5 6.2-3.9 1.9-1.3 3.9-2.6 5.8-3.8 1.9-1.2 3.9-2.3 5.8-3.3 2-1 4-1.8 6.2-2.3 2.2-0.6 4.5-0.8 7-0.9 2.5 0 5.2 0.4 8.2 1.1 0.2 0 0.8 0.2 1.7 0.4 0.9 0.2 1.9 0.5 3.1 0.9 1.1 0.4 2.3 1 3.5 1.6 1.2 0.7 2.1 1.5 2.9 2.5 0.8 1 1.2 2.2 1.3 3.5 0.1 1.4-0.2 2.9-1.1 4.7-0.3 0.5-0.7 1-1.4 1.4-0.7 0.4-1.5 0.7-2.4 1s-1.9 0.4-2.8 0.5-1.8 0.2-2.6 0.2-1.3-0.1-1.7-0.2c-0.4-0.1-0.5-0.3-0.3-0.5 1.5-1.7 2.6-3.2 3.2-4.7 0.6-1.5 0.9-2.8 0.8-4s-0.5-2.3-1.1-3.2c-0.7-0.9-1.5-1.6-2.5-2-1-0.5-2.1-0.7-3.3-0.7-1.2 0-2.4 0.3-3.6 0.9-2.1 1.1-4.2 2.4-6.4 3.8s-4.4 2.9-6.6 4.4c-2.3 1.5-4.6 2.9-7.1 4.3s-5 2.6-7.6 3.7c-2.6 1-5.4 1.8-8.3 2.3-2.9 0.5-5.9 0.6-9.1 0.3 1.9 2 3.8 4.4 5.5 7.5 1.8 3 3.4 6.7 4.7 11.1z m76.8 9c5.6-0.3 10.4-0.1 14.5 0.8 4.1 0.8 7.5 2 10 3.6 2.6 1.6 4.4 3.4 5.5 5.6s1.4 4.4 1 6.8c-0.4 2.4-1.6 4.8-3.6 7.2-2 2.4-4.8 4.7-8.3 6.8s-7.9 3.9-13 5.5-11 2.8-17.7 3.5c-7 0.8-12.8 0.8-17.4 0.2-4.6-0.7-8.2-1.8-10.8-3.4-2.5-1.6-4.1-3.6-4.8-6-0.6-2.3-0.4-4.8 0.6-7.4 1-2.6 2.8-5.2 5.4-7.8 2.6-2.6 5.8-5 9.5-7.2 3.8-2.2 8.1-4 13.1-5.4 5-1.6 10.3-2.5 16-2.8z m-10.1 37.5c4.5-0.6 8.6-1.6 12.3-3.2 3.7-1.6 6.9-3.5 9.5-5.6 2.7-2.2 4.8-4.5 6.4-7 1.6-2.5 2.6-4.9 3-7.2 0.4-2.3 0.1-4.5-0.8-6.5s-2.5-3.5-4.9-4.6c-2.4-1.1-5.5-1.7-9.3-1.7-3.9 0-8.6 0.7-14.1 2.2-3.1 0.9-6 2.1-8.8 3.6-2.8 1.6-5.4 3.3-7.6 5.2-2.2 1.9-4.2 4-5.7 6.1-1.5 2.1-2.6 4.2-3.2 6.3-0.6 2.1-0.7 4-0.2 5.8 0.5 1.8 1.6 3.3 3.4 4.5 1.8 1.2 4.4 2 7.7 2.5 3.1 0.4 7.3 0.3 12.3-0.4z m91.6 24.5c1.2 1.1 2 2.4 2.4 3.8 0.4 1.5 0.5 3 0.3 4.6-0.2 1.6-0.8 3.2-1.6 4.8s-1.9 3.1-3.2 4.5c-1.3 1.4-2.8 2.6-4.6 3.7-1.8 1-3.7 1.8-5.8 2.2-3 0.8-6.2 1.3-9.4 1.8-3.2 0.4-6.4 0.8-9.7 1.3s-6.7 0.9-10.2 1.5-7 1.4-10.7 2.5c-1.4 1-3 1.9-4.7 2.6s-3.6 1-5.8 1l0.3-0.3h0.6c1.5-1 2.8-2.4 3.9-4.3s2.1-4 3-6.4c0.9-2.4 1.8-5 2.6-7.7 0.9-2.8 1.8-5.5 2.9-8.2 1.1-2.7 2.4-5.4 3.9-7.9 1.5-2.6 3.2-4.8 5.4-6.8 2.1-2 4.6-3.6 7.5-4.9 2.9-1.3 6.3-2 10.2-2.2-0.5-0.5-1.1-1.2-1.8-2s-1.4-1.7-2.3-2.7c-0.8-1-1.7-2-2.7-3-1-1-2-2-3-2.9-1-0.9-2.1-1.7-3.3-2.4-1.1-0.7-2.3-1.2-3.4-1.6-0.9-0.2-1.9-0.2-3.1 0-1.2 0.3-2.4 0.8-3.5 1.5-1.2 0.7-2.3 1.6-3.3 2.6s-1.8 2.2-2.4 3.5c-0.6 1.3-0.9 2.7-0.8 4.2 0 1.5 0.5 3 1.5 4.6 0.1 0.2 0 0.2-0.5 0.2s-1.1-0.1-1.9-0.3c-0.8-0.2-1.7-0.4-2.6-0.7s-1.9-0.6-2.7-0.9c-0.9-0.3-1.6-0.7-2.1-1.1-0.6-0.4-0.9-0.8-0.8-1.2 0.1-2.2 0.5-4.2 1.2-5.8 0.7-1.6 1.7-3 2.9-4.2 1.2-1.2 2.5-2.1 4-2.8 1.5-0.7 3.1-1.2 4.8-1.6 1.7-0.3 3.4-0.5 5.1-0.5 1.7 0 3.4 0.1 5.1 0.3 2.3 0.4 4.4 0.9 6.3 1.7 1.9 0.8 3.6 1.7 5.2 2.7 1.6 1 3 2.1 4.3 3.3 1.3 1.2 2.4 2.4 3.5 3.7s2 2.5 2.8 3.7c0.8 1.2 1.6 2.3 2.3 3.3-3.3 0.1-6.3 0.6-8.8 1.5-2.5 0.9-4.8 2.2-6.6 3.7-1.9 1.5-3.5 3.3-4.9 5.3-1.4 2-2.6 4.2-3.8 6.4s-2.1 4.6-3.1 7c-1 2.4-1.9 4.7-2.9 6.9s-2.1 4.4-3.2 6.4c-1.2 2-2.5 3.7-4.1 5.2 2.5-0.7 5-1.3 7.6-1.8 2.6-0.5 5.2-1.1 7.8-1.7 2.6-0.6 5.1-1.2 7.6-1.8 2.5-0.7 4.9-1.5 7.1-2.4s4.3-2 6.1-3.3c1.9-1.3 3.5-2.8 4.9-4.6 1.2-1.6 2-3.1 2.4-4.5 0.5-1.4 0.7-2.7 0.6-3.9s-0.3-2.3-0.7-3.3c-0.5-1-1-1.9-1.6-2.7-0.6-0.8-1.3-1.5-2-2-0.7-0.6-1.3-1-1.9-1.4 1.1 0.3 2.2 0.6 3.5 0.8 1.3 0.2 2.5 0.5 3.7 0.7 1.2 0.2 2.4 0.6 3.4 0.9 1.4 0.3 2.2 0.8 2.8 1.4z m-2.1 84.1c0 0.1 0.2 0.6 0.4 1.3 0.2 0.7 0.6 1.5 1.2 2.5 0.5 0.9 1.3 1.8 2.3 2.8s2.2 1.6 3.7 2.1 3.3 0.7 5.5 0.6c2.1-0.1 4.7-0.7 7.6-1.8-3.6 1.4-6.7 2.4-9.5 2.8-2.8 0.4-5.2 0.5-7.4 0.2s-4-0.9-5.6-1.9c-1.6-1-3-2.1-4.1-3.4-1.2-1.3-2.1-2.7-2.9-4.3-0.8-1.6-1.5-3.1-2.1-4.7-0.6-1.5-1.1-3.1-1.6-4.5-0.4-1.4-0.9-2.7-1.4-3.7-1.1-2.4-2.5-4.3-3.9-5.8-1.5-1.5-3-2.7-4.5-3.5-1.6-0.8-3.1-1.4-4.7-1.7-1.6-0.3-3-0.5-4.4-0.5 2-0.3 4-0.6 5.9-0.6 1.9 0 3.7 0.1 5.4 0.5 1.7 0.4 3.3 1 4.9 1.8 1.5 0.8 3 1.9 4.4 3.3 2.6-0.7 5-1.6 7.2-2.7s4.4-2.3 6.3-3.5c2-1.3 3.9-2.6 5.7-4 1.8-1.4 3.6-2.7 5.4-3.9 1.8-1.3 3.5-2.4 5.4-3.5 1.8-1.1 3.6-2 5.6-2.7 1.9-0.7 4-1.2 6.2-1.4s4.5-0.2 7.1 0.3c-1.2-1.4-2.4-2.9-3.6-4.3-1.3-1.5-2.5-2.8-3.8-4.1-1.2-1.3-2.4-2.5-3.6-3.5-1.1-1.1-2.1-1.9-2.9-2.6-1.1-0.7-2.4-1.2-3.7-1.5-1.3-0.3-2.6-0.3-3.9-0.1s-2.5 0.6-3.6 1.2-2 1.4-2.8 2.5c-0.7 1-1.1 2.3-1.3 3.8-0.2 1.5 0 3.2 0.7 5.1 0.1 0.4-0.2 0.5-0.7 0.5-0.5 0-1.2-0.1-2-0.3-0.8-0.2-1.6-0.6-2.6-1-0.9-0.4-1.8-0.9-2.5-1.4-0.8-0.5-1.4-1.1-1.9-1.6s-0.7-1.1-0.6-1.6c0.3-1.8 1.1-3.4 2.3-4.8 1.2-1.4 2.8-2.4 4.8-3.2s4.3-1.1 7-1.2c2.7 0 5.7 0.4 8.9 1.2 3 0.8 5.8 2 8.3 3.5 2.5 1.5 4.9 3.2 7.1 5.2 2.2 1.9 4.3 4 6.4 6.2 2 2.2 4 4.3 5.9 6.5 1.9 2.1 3.9 4.1 5.8 6.1 1.9 1.9 4 3.6 6.1 5 0.7 0.5 0.8 0.8 0.4 0.9-0.3 0.1-1 0.2-2 0-1-0.1-2.2-0.4-3.6-0.8s-2.8-0.9-4.3-1.6c-1.5-0.7-2.9-1.4-4.2-2.3-1.4-0.9-2.5-1.9-3.3-2.9-0.6-0.9-1.3-1.9-2.2-3-0.9-1.2-1.7-2.3-2.6-3.6-1.8 0.3-3.6 0.8-5.4 1.6-1.8 0.7-3.6 1.6-5.4 2.7s-3.6 2.2-5.3 3.4-3.6 2.4-5.4 3.7c0.7 0.7 1.5 1.6 2.4 2.5l2.9 2.9c1 1 2.1 2.1 3.3 3.1l3.3 3c1.1 1 2.1 1.8 3.1 2.7s1.9 1.5 2.6 2c-0.3 0-0.8-0.1-1.5-0.2s-1.5-0.3-2.5-0.5c-0.9-0.2-1.9-0.5-3-0.8s-2-0.6-3-1-1.9-0.8-2.7-1.2c-0.8-0.4-1.4-0.8-1.9-1.3-0.5-0.4-1.1-0.9-1.7-1.5l-2-2c-0.7-0.7-1.5-1.5-2.2-2.3-0.7-0.8-1.5-1.6-2.2-2.3-1.7 1-3.4 2-5 3-1.7 1-3.4 1.8-5.1 2.5-1.7 0.7-3.5 1.3-5.4 1.7-1.8 0.4-3.7 0.7-5.7 0.7 1.5 1.8 2.9 4 4.1 6.7 1.1 2.1 2.4 5.1 3.6 8.5z" fill="#FFFFFF" /></svg>