<?xml version="1.0" standalone="no"?><!DOCTYPE svg PUBLIC "-//W3C//DTD SVG 1.1//EN" "http://www.w3.org/Graphics/SVG/1.1/DTD/svg11.dtd"><svg class="icon" width="64px" height="64.00px" viewBox="0 0 1024 1024" version="1.1" xmlns="http://www.w3.org/2000/svg"><path d="M385 930.5a209.8 29 0 1 0 419.6 0 209.8 29 0 1 0-419.6 0z" fill="#EEEEEE" opacity=".4" /><path d="M670.4 918c-11-4.3-56.6-12.7-90.3-21.8-34.6-9.3-27.8-58.2 31.7-68.7h-164c59.5 10.5 66.3 59.3 31.7 68.7-33.7 9.1-79.4 17.5-90.3 21.8-5.6 2.2-28.8 41.5 145.5 41.5s141.1-39.4 135.7-41.5z" fill="#FDB937" /><path d="M495.6 846.7c16.7 21.7 10.3 48.1-15.9 55.2-10.3 2.8-21.6 5.6-32.8 8.2 0 0 31.9-4.1 40.4-6.2 29.5-7.2 33.8-36.6 8.3-57.2z" fill="#FFFFFF" opacity=".6" /><path d="M566.4 850.1c-16.7 19.4-10.3 43 15.9 49.4 10.3 2.5 21.6 5 32.8 7.4 0 0-31.9-3.6-40.4-5.5-29.5-6.6-33.8-32.9-8.3-51.3z" fill="#FF9E00" /><path d="M534 935c-44.2 0-72.6-4.8-90.7-11.4 9.9 9.8 34.2 19.3 90 19.3 53.2 0 76.3-8.7 85.6-18-17.2 6-43.9 10.1-84.9 10.1z" fill="#FFFFFF" opacity=".5" /><path d="M279.7 438.6a251 48.4 0 1 0 502 0 251 48.4 0 1 0-502 0z" fill="#FDF050" /><path d="M279.7 429.4a251 48.4 0 1 0 502 0 251 48.4 0 1 0-502 0z" fill="#F9DE6D" /><path d="M781.7 438.6c0 26.7-112.4 48.4-251 48.4s-251-21.7-251-48.4c14.6 177.2 66.8 405.8 249.7 408v0.1h2.6v-0.1c182.9-2.1 235-230.7 249.7-408z" fill="#FDB937" /><path d="M728 288.7h55.7c0 132-9.8 474.2-206.1 525C720.2 713.8 728 412.9 728 288.7z" fill="#FFFFFF" opacity=".2" /><path d="M530.7 239.7c-141.7 0-256.5 22-256.5 49.1 0 149.4 11.3 555 255.3 557.9v0.1h2.6v-0.1c243.9-2.9 255.3-408.5 255.3-557.9-0.1-27.2-115-49.1-256.7-49.1z" fill="#F9DE6D" opacity=".2" /><path d="M532.3 828c0 0.1 0 0.1 0 0-0.5 0.1-0.9 0-1.4 0h-1.4v-0.1c-67.7-0.7-119-27.1-158-68.5 37 51.9 87.9 86.2 158.2 87v0.1h2.6v-0.1c70.3-0.8 121.2-35.1 158.2-87C651.3 801 600 827.3 532.3 828z" fill="#FF9E00" /><path d="M310.265 492.008a15.3 12.9 84.154 1 0 25.666-2.627 15.3 12.9 84.154 1 0-25.666 2.627z" fill="#FFFFFF" /><path d="M348.5 288.7h-55.7c0 132 9.8 474.2 206.1 525-142.6-99.9-150.4-400.8-150.4-525z" fill="#FFFFFF" opacity=".4" /><path d="M530.7 239.7c-141.7 0-256.5 22-256.5 49.1s114.9 49.1 256.5 49.1 256.5-22 256.5-49.1c0.1-27.2-114.8-49.1-256.5-49.1z m0 95.4c-136 0-246.3-20.8-246.3-46.4s110.3-46.4 246.3-46.4S777 263.1 777 288.7c0 25.7-110.2 46.4-246.3 46.4z" fill="#F9DE6D" /><path d="M376.2 438.6h19.5l-161.6-369c-2-4.5-7.2-6.6-11.8-4.6-4.5 2-6.6 7.2-4.6 11.8l158.5 361.8z" fill="#FDB937" /><path d="M320 289.4c49.4-21.6 78.3-29.5 110.3-35.9L235.4 95.2l-16.1 250.6c26.5-19.2 51.7-34.9 100.7-56.4z" fill="#FF8548" /><path d="M164.1 328.1c26.4 3 40.4 9 55.2 17.7l16.1-250.4-128.8 237.4c16.4-5 31.2-7.7 57.5-4.7zM455 200.7c-15.7 21.4-20.7 35.8-24.5 52.6L235.6 95.4l261.9 66.3c-14.8 8.6-26.9 17.7-42.5 39z" fill="#FF770D" /><path d="M690.6 293.6l40-104.1c0.5-1.2 1.8-1.8 2.9-1.3 1.2 0.4 1.8 1.8 1.3 2.9l-40 104.1c-0.5 1.2-1.8 1.8-2.9 1.3-1.2-0.4-1.8-1.7-1.3-2.9z" fill="#FFFFFF" opacity=".6" /><path d="M669.6 438.6l89.2-232.4 145.4-35.6-8.8-36.1-154.9 37.9c-5.9 1.4-10.7 5.7-12.9 11.4l-97.8 254.8h39.8z" fill="#5CD01D" /><path d="M690.6 293.6l40-104.1c0.5-1.2 1.8-1.8 2.9-1.3 1.2 0.4 1.8 1.8 1.3 2.9l-40 104.1c-0.5 1.2-1.8 1.8-2.9 1.3-1.2-0.4-1.8-1.7-1.3-2.9z" fill="#FFFFFF" opacity=".6" /><path d="M743.5 312.1c-42.7 13.8-122 23-212.8 23s-170.1-9.3-212.8-23H305c43.4 15.3 128.2 25.7 225.7 25.7s182.3-10.4 225.7-25.7h-12.9z" fill="#F9DE6D" /></svg>